<?xml version="1.0" encoding="UTF-8" standalone="no"?>
<svg
   xmlns:osb="http://www.openswatchbook.org/uri/2009/osb"
   xmlns:dc="http://purl.org/dc/elements/1.1/"
   xmlns:cc="http://creativecommons.org/ns#"
   xmlns:rdf="http://www.w3.org/1999/02/22-rdf-syntax-ns#"
   xmlns:svg="http://www.w3.org/2000/svg"
   xmlns="http://www.w3.org/2000/svg"
   xmlns:xlink="http://www.w3.org/1999/xlink"
   version="1.1"
   id="svg2"
   viewBox="0 0 248.21484 55.357421"
   height="15.623095mm"
   width="70.051743mm">
  <defs
     id="defs4">
    <linearGradient
       osb:paint="solid"
       id="linearGradient4178">
      <stop
         id="stop4180"
         offset="0"
         style="stop-color:#000000;stop-opacity:1;" />
    </linearGradient>
    <linearGradient
       id="linearGradient4142">
      <stop
         id="stop4144"
         offset="0"
         style="stop-color:#e5792e;stop-opacity:1;" />
      <stop
         id="stop4146"
         offset="1"
         style="stop-color:#bb5a14;stop-opacity:1" />
    </linearGradient>
    <linearGradient
       gradientUnits="userSpaceOnUse"
       y2="178.27864"
       x2="289.34592"
       y1="131.30655"
       x1="289.34592"
       id="linearGradient4148"
       xlink:href="#linearGradient4142" />
  </defs>
  <metadata
     id="metadata7">
    <rdf:RDF>
      <cc:Work
         rdf:about="">
        <dc:format>image/svg+xml</dc:format>
        <dc:type
           rdf:resource="http://purl.org/dc/dcmitype/StillImage" />
        <dc:title></dc:title>
      </cc:Work>
    </rdf:RDF>
  </metadata>
  <g
     transform="translate(-169.64258,-112.71875)"
     id="layer1">
    <path
       id="rect3340"
       d="m 176.71484,112.71875 c -3.91737,0 -7.07226,3.15489 -7.07226,7.07227 l 0,41.21484 c 0,3.91737 3.15489,7.07031 7.07226,7.07031 l 234.07032,0 c 3.91737,0 7.07226,-3.15294 7.07226,-7.07031 l 0,-41.21484 c 0,-3.91738 -3.15489,-7.07227 -7.07226,-7.07227 l -234.07032,0 z m 94.62305,7.97266 c 0.44271,0 0.88542,0.0391 1.32813,0.11718 0.45572,0.0651 0.95703,0.16276 1.5039,0.29297 l -0.46875,2.92969 c -0.23437,-0.0521 -0.52083,-0.0977 -0.85937,-0.13672 -0.32552,-0.0391 -0.67058,-0.0586 -1.03516,-0.0586 -1.11979,0 -1.95312,0.33854 -2.5,1.01562 -0.54687,0.66406 -0.82031,1.63412 -0.82031,2.91016 l 0,2.67578 4.39453,0 0,2.85156 -4.39453,0 0,18.28125 -3.84766,0 0,-18.28125 -3.30078,0 0,-2.85156 3.30078,0 0,-2.67578 c 0,-2.25261 0.58594,-3.99089 1.75781,-5.21484 1.1849,-1.23698 2.83204,-1.85547 4.94141,-1.85547 z m 109.12109,0.41015 3.84766,0 0,3.84766 -3.84766,0 0,-3.84766 z m -152.7539,4.23828 3.84765,0 0,5.09766 4.00391,0 0,2.85156 -4.00391,0 0,12.83203 c 0,0.98959 0.20183,1.6862 0.60547,2.08985 0.41667,0.40364 0.96354,0.60547 1.64063,0.60547 0.22135,0 0.46224,-0.026 0.72265,-0.0781 0.27344,-0.0521 0.51433,-0.11719 0.72266,-0.19531 l 0.50781,2.63672 c -0.28646,0.23437 -0.70963,0.42317 -1.26953,0.5664 -0.54687,0.15625 -1.10026,0.23438 -1.66015,0.23438 -1.5625,0 -2.80599,-0.46875 -3.73047,-1.40625 -0.92448,-0.95052 -1.38672,-2.4349 -1.38672,-4.45313 l 0,-12.83203 -3.35938,0 0,-2.85156 3.35938,0 0,-5.09766 z m -37.5586,4.70704 c 2.39584,0 4.32292,0.61197 5.78125,1.83593 1.45834,1.21094 2.1875,2.96224 2.1875,5.25391 l 0,10.17578 c 0,0.75521 0.0391,1.48438 0.11719,2.1875 0.0781,0.70312 0.22136,1.39323 0.42969,2.07031 l -3.96484,0 c -0.13021,-0.63802 -0.23438,-1.19791 -0.3125,-1.67969 -0.0651,-0.49479 -0.10417,-0.98958 -0.11719,-1.48437 -0.71615,1.01563 -1.65365,1.86849 -2.8125,2.55859 -1.14584,0.67709 -2.38281,1.01563 -3.71094,1.01563 -2.20052,0 -3.88021,-0.5599 -5.03906,-1.67969 -1.14584,-1.13281 -1.71875,-2.6888 -1.71875,-4.66797 0,-2.01823 0.8138,-3.59375 2.4414,-4.72656 1.64063,-1.14583 3.86068,-1.71875 6.66016,-1.71875 l 4.17969,0 0,-2.08984 c 0,-1.23698 -0.37761,-2.21355 -1.13281,-2.92969 -0.75521,-0.72917 -1.82292,-1.09375 -3.20313,-1.09375 -1.23698,0 -2.24609,0.31901 -3.02734,0.95703 -0.76823,0.625 -1.15235,1.38021 -1.15235,2.26563 l -3.67187,0 -0.0391,-0.11719 c -0.0781,-1.53646 0.64453,-2.94271 2.16796,-4.21875 1.53646,-1.27604 3.51563,-1.91406 5.9375,-1.91406 z m 58.69141,0 c 2.92969,0 5.24089,1.00911 6.93359,3.02734 1.70573,2.01823 2.5586,4.59635 2.5586,7.73437 l 0,0.42969 c 0,3.15104 -0.84636,5.72917 -2.53906,7.73438 -1.69271,2.0052 -3.9974,3.00781 -6.91407,3.00781 -2.91666,0 -5.22786,-1.00261 -6.93359,-3.00781 -1.69271,-2.01823 -2.53906,-4.59636 -2.53906,-7.73438 l 0,-0.42969 c 0,-3.125 0.84635,-5.69661 2.53906,-7.71484 1.69271,-2.03125 3.99088,-3.04687 6.89453,-3.04687 z m 36.5625,0 c 2.92969,0 5.24089,1.00911 6.93359,3.02734 1.70573,2.01823 2.5586,4.59635 2.5586,7.73437 l 0,0.42969 c 0,3.15104 -0.84636,5.72917 -2.53906,7.73438 -1.69271,2.0052 -3.9974,3.00781 -6.91407,3.00781 -2.91666,0 -5.22786,-1.00261 -6.93359,-3.00781 -1.69271,-2.01823 -2.53906,-4.59636 -2.53906,-7.73438 l 0,-0.42969 c 0,-3.125 0.84635,-5.69661 2.53906,-7.71484 1.69271,-2.03125 3.99088,-3.04687 6.89453,-3.04687 z m 23.26172,0 c 0.28646,0 0.5599,0.026 0.82031,0.0781 0.26042,0.0391 0.47526,0.0846 0.64453,0.13672 l -0.52734,3.57422 -1.97266,-0.11719 c -1.01562,0 -1.875,0.24089 -2.57812,0.72266 -0.69011,0.48177 -1.22396,1.15885 -1.60156,2.03125 l 0,15.09765 -3.84766,0 0,-21.13281 3.4375,0 0.37109,3.08594 c 0.59896,-1.09375 1.33464,-1.94662 2.20703,-2.5586 0.88542,-0.61198 1.90105,-0.91796 3.04688,-0.91796 z m 14.72656,0 c 1.40625,0 2.61068,0.32552 3.61328,0.97656 1.01563,0.65104 1.77735,1.6276 2.28516,2.92968 0.66406,-1.19791 1.54297,-2.14843 2.63672,-2.85156 1.09375,-0.70312 2.36979,-1.05468 3.82812,-1.05468 2.14844,0 3.84766,0.74218 5.09766,2.22656 1.25,1.47135 1.875,3.6914 1.875,6.66015 l 0,12.63672 -3.84766,0 0,-12.67578 c 0,-2.08333 -0.35807,-3.55469 -1.07422,-4.41406 -0.71614,-0.8724 -1.78385,-1.30859 -3.20312,-1.30859 -1.3151,0 -2.38281,0.45572 -3.20313,1.36718 -0.80729,0.91146 -1.28255,2.0638 -1.42578,3.45703 l 0,0.15625 0,13.41797 -3.86718,0 0,-12.67578 c 0,-1.97917 -0.3711,-3.42448 -1.11329,-4.33594 -0.72916,-0.92448 -1.78385,-1.38671 -3.16406,-1.38671 -1.17187,0 -2.13541,0.24088 -2.89062,0.72265 -0.75521,0.48177 -1.33464,1.15886 -1.73828,2.03125 l 0,15.64453 -3.84766,0 0,-21.13281 3.4375,0 0.27344,2.77344 c 0.6901,-1.00261 1.5625,-1.77735 2.61718,-2.32422 1.06771,-0.5599 2.30469,-0.83984 3.71094,-0.83984 z m 32.77344,0 c 2.46094,0 4.41406,0.63151 5.85937,1.89453 1.45834,1.26302 2.15495,2.79948 2.08985,4.60937 l -0.0391,0.11719 -3.67188,0 c 0,-0.92448 -0.39062,-1.7513 -1.17187,-2.48047 -0.76823,-0.74219 -1.79037,-1.11328 -3.06641,-1.11328 -1.36719,0 -2.38281,0.29948 -3.04688,0.89844 -0.66406,0.59895 -0.99609,1.32161 -0.99609,2.16796 0,0.83334 0.29297,1.49089 0.87891,1.97266 0.58593,0.48177 1.77734,0.91146 3.57422,1.28906 2.66927,0.57292 4.65494,1.35417 5.95703,2.34375 1.30208,0.97657 1.95312,2.29167 1.95312,3.94532 0,1.875 -0.76172,3.39192 -2.28515,4.55078 -1.51042,1.15885 -3.48959,1.73828 -5.9375,1.73828 -2.69532,0 -4.81771,-0.68359 -6.36719,-2.05078 -1.54948,-1.36719 -2.28516,-2.96224 -2.20703,-4.78516 l 0.0391,-0.11719 3.67187,0 c 0.0651,1.36719 0.57292,2.3698 1.52344,3.00782 0.95052,0.625 2.0638,0.9375 3.33985,0.9375 1.36718,0 2.43489,-0.27344 3.20312,-0.82032 0.78125,-0.55989 1.17188,-1.28906 1.17188,-2.1875 0,-0.84635 -0.32553,-1.54296 -0.97657,-2.08984 -0.63802,-0.54688 -1.85547,-1.02214 -3.65234,-1.42578 -2.5651,-0.5599 -4.4987,-1.31511 -5.80078,-2.26563 -1.28906,-0.96354 -1.9336,-2.27213 -1.9336,-3.92578 0,-1.71875 0.72917,-3.18359 2.1875,-4.39453 1.45834,-1.21094 3.35938,-1.8164 5.70313,-1.8164 z m 42.03125,0 c 2.46094,0 4.41406,0.63151 5.85937,1.89453 1.45834,1.26302 2.15495,2.79948 2.08985,4.60937 l -0.0391,0.11719 -3.67188,0 c 0,-0.92448 -0.39062,-1.7513 -1.17187,-2.48047 -0.76823,-0.74219 -1.79037,-1.11328 -3.06641,-1.11328 -1.36719,0 -2.38281,0.29948 -3.04688,0.89844 -0.66406,0.59895 -0.99609,1.32161 -0.99609,2.16796 0,0.83334 0.29297,1.49089 0.87891,1.97266 0.58593,0.48177 1.77734,0.91146 3.57422,1.28906 2.66927,0.57292 4.65494,1.35417 5.95703,2.34375 1.30208,0.97657 1.95312,2.29167 1.95312,3.94532 0,1.875 -0.76172,3.39192 -2.28515,4.55078 -1.51042,1.15885 -3.48959,1.73828 -5.9375,1.73828 -2.69532,0 -4.81771,-0.68359 -6.36719,-2.05078 -1.54948,-1.36719 -2.28516,-2.96224 -2.20703,-4.78516 l 0.0391,-0.11719 3.67187,0 c 0.0651,1.36719 0.57292,2.3698 1.52344,3.00782 0.95052,0.625 2.0638,0.9375 3.33985,0.9375 1.36718,0 2.43489,-0.27344 3.20312,-0.82032 0.78125,-0.55989 1.17188,-1.28906 1.17188,-2.1875 0,-0.84635 -0.32553,-1.54296 -0.97657,-2.08984 -0.63802,-0.54688 -1.85547,-1.02214 -3.65234,-1.42578 -2.5651,-0.5599 -4.4987,-1.31511 -5.80078,-2.26563 -1.28906,-0.96354 -1.9336,-2.27213 -1.9336,-3.92578 0,-1.71875 0.72917,-3.18359 2.1875,-4.39453 1.45834,-1.21094 3.35938,-1.8164 5.70313,-1.8164 z m -194.53125,0.39062 3.84766,0 0,12.5 c 0,2.2526 0.33203,3.80208 0.99609,4.64844 0.66406,0.84635 1.69922,1.26953 3.10547,1.26953 1.36719,0 2.49349,-0.27344 3.3789,-0.82031 0.89844,-0.5599 1.57553,-1.34766 2.03125,-2.36328 l 0,-15.23438 3.84766,0 0,21.13281 -3.45703,0 -0.25391,-3.125 c -0.66406,1.13281 -1.51692,2.00521 -2.55859,2.61719 -1.04167,0.61198 -2.24609,0.91797 -3.61328,0.91797 -2.30469,0 -4.10156,-0.73568 -5.39063,-2.20703 -1.28906,-1.47136 -1.93359,-3.76302 -1.93359,-6.875 l 0,-12.46094 z m 176.91406,0 3.84766,0 0,22.87109 c 0,2.17448 -0.5599,3.84766 -1.67969,5.01953 -1.11979,1.1849 -2.67578,1.77735 -4.66797,1.77735 -0.40364,0 -0.76823,-0.0325 -1.09375,-0.0977 -0.33854,-0.0521 -0.69661,-0.13672 -1.07422,-0.2539 l 0.27344,-3.02735 c 0.18229,0.0651 0.44271,0.11719 0.78125,0.15625 0.33854,0.0521 0.61849,0.0781 0.83984,0.0781 0.84636,0 1.51693,-0.28646 2.01172,-0.85938 0.50782,-0.57291 0.76172,-1.5039 0.76172,-2.79297 l 0,-22.87109 z m -131.73828,2.63672 c -1.83594,0 -3.22917,0.73568 -4.17969,2.20703 -0.9375,1.47135 -1.40625,3.3138 -1.40625,5.52734 l 0,0.42969 c 0,2.23958 0.46875,4.08854 1.40625,5.54688 0.95052,1.45833 2.35677,2.1875 4.21875,2.1875 1.83594,0 3.22917,-0.72917 4.17969,-2.1875 0.95052,-1.45834 1.42578,-3.3073 1.42578,-5.54688 l 0,-0.42969 c 0,-2.21354 -0.48177,-4.05599 -1.44531,-5.52734 -0.95052,-1.47135 -2.35026,-2.20703 -4.19922,-2.20703 z m 36.5625,0 c -1.83594,0 -3.22917,0.73568 -4.17969,2.20703 -0.9375,1.47135 -1.40625,3.3138 -1.40625,5.52734 l 0,0.42969 c 0,2.23958 0.46875,4.08854 1.40625,5.54688 0.95052,1.45833 2.35677,2.1875 4.21875,2.1875 1.83594,0 3.22917,-0.72917 4.17969,-2.1875 0.95052,-1.45834 1.42578,-3.3073 1.42578,-5.54688 l 0,-0.42969 c 0,-2.21354 -0.48177,-4.05599 -1.44531,-5.52734 -0.95052,-1.47135 -2.35026,-2.20703 -4.19922,-2.20703 z m -95.44922,8.71094 c -1.54948,0 -2.79297,0.39062 -3.73047,1.17187 -0.92448,0.78125 -1.38672,1.69922 -1.38672,2.75391 0,0.9375 0.29297,1.67968 0.87891,2.22656 0.58594,0.54688 1.45182,0.82031 2.59766,0.82031 1.39323,0 2.64974,-0.35807 3.76953,-1.07422 1.11979,-0.71614 1.84896,-1.53645 2.1875,-2.46093 l 0,-3.4375 -4.31641,0 z m 179.6875,5.83984 3.84766,0 0,3.94531 -3.84766,0 0,-3.94531 z"
       style="fill:url(#linearGradient4148);fill-opacity:1" />
  </g>
</svg>
